<svg width="120" height="120" viewBox="0 0 120 120" fill="none" xmlns="http://www.w3.org/2000/svg">
<g clip-path="url(#clip0_4_30)">
<path d="M120 60C120 26.8625 93.1375 0 60 0C26.8625 0 0 26.8625 0 60C0 93.1375 26.8625 120 60 120H120V110H93.125C101.384 104.532 108.161 97.1045 112.851 88.3798C117.54 79.6552 119.996 69.9051 120 60ZM89.3894 100.452C82.6881 105.32 73.3056 103.836 68.4375 97.1313C63.5688 90.43 65.0537 81.05 71.7556 76.1794C78.4594 71.3106 87.8394 72.7956 92.7075 79.4994C97.5781 86.2012 96.0912 95.5806 89.3894 100.452ZM88.6519 34.9194C96.5306 32.3581 104.992 36.6694 107.554 44.5481C110.112 52.4294 105.801 60.8912 97.9225 63.45C90.0437 66.0106 81.5819 61.6994 79.0212 53.8206C76.4625 45.9425 80.7731 37.4781 88.6519 34.9194ZM60 10C68.2837 10 75 16.7163 75 25C75 33.2837 68.2837 40 60 40C51.7163 40 45 33.2837 45 25C45 16.7163 51.7163 10 60 10ZM12.4462 44.5481C15.0075 36.67 23.4694 32.3581 31.3475 34.9169C39.2262 37.4781 43.5375 45.94 40.9788 53.8181C38.4181 61.6969 29.9563 66.0081 22.0775 63.4494C14.1988 60.8906 9.8875 52.4294 12.4462 44.5481ZM51.5625 97.1313C46.6938 103.836 37.3125 105.32 30.6106 100.452C23.9088 95.5813 22.4219 86.2012 27.2925 79.4994C32.1606 72.7981 41.5425 71.3112 48.2444 76.1819C54.9463 81.05 56.4306 90.4288 51.5625 97.1313ZM55 60C55 58.6739 55.5268 57.4021 56.4645 56.4645C57.4021 55.5268 58.6739 55 60 55C61.3261 55 62.5979 55.5268 63.5355 56.4645C64.4732 57.4021 65 58.6739 65 60C65 61.3261 64.4732 62.5979 63.5355 63.5355C62.5979 64.4732 61.3261 65 60 65C58.6739 65 57.4021 64.4732 56.4645 63.5355C55.5268 62.5979 55 61.3261 55 60Z" fill="#2562FF"/>
</g>
<defs>
<clipPath id="clip0_4_30">
<rect width="120" height="120" fill="white"/>
</clipPath>
</defs>
</svg>
